<svg xmlns="http://www.w3.org/2000/svg" width="1280" height="720" viewBox="0 0 1280 720">
  <defs>
    <linearGradient id="bg" x1="0" x2="1" y1="0" y2="1">
      <stop offset="0" stop-color="#020617"/>
      <stop offset="0.45" stop-color="#050816"/>
      <stop offset="1" stop-color="#111827"/>
    </linearGradient>
    <linearGradient id="accent" x1="0" x2="1">
      <stop stop-color="#7c3aed"/>
      <stop offset="1" stop-color="#06b6d4"/>
    </linearGradient>
    <filter id="shadow" x="-20%" y="-20%" width="140%" height="140%">
      <feDropShadow dx="0" dy="18" stdDeviation="24" flood-color="#000" flood-opacity="0.45"/>
    </filter>
  </defs>
  <rect width="1280" height="720" fill="url(#bg)"/>
  <circle cx="160" cy="100" r="210" fill="#7c3aed" opacity="0.2"/>
  <circle cx="1100" cy="30" r="230" fill="#06b6d4" opacity="0.16"/>
  <rect x="70" y="54" width="1140" height="92" rx="24" fill="#0f172a" opacity="0.8" stroke="#334155"/>
  <rect x="104" y="78" width="54" height="54" rx="16" fill="url(#accent)"/>
  <text x="119" y="113" fill="white" font-family="monospace" font-size="22" font-weight="700">TF</text>
  <text x="180" y="103" fill="#f8fafc" font-family="Inter, Arial" font-size="30" font-weight="800">TaskFlow Terminal</text>
  <text x="180" y="127" fill="#94a3b8" font-family="monospace" font-size="14">LOCAL-FIRST PRODUCTIVITY SYSTEM</text>
  <rect x="70" y="184" width="1140" height="158" rx="28" fill="#0f172a" opacity="0.74" stroke="#334155" filter="url(#shadow)"/>
  <text x="108" y="242" fill="#67e8f9" font-family="monospace" font-size="16" letter-spacing="4">PRODUCTIVITY DASHBOARD</text>
  <text x="108" y="292" fill="#f8fafc" font-family="Inter, Arial" font-size="48" font-weight="800">Plan, prioritize and ship work faster.</text>
  <rect x="980" y="235" width="170" height="52" rx="16" fill="url(#accent)"/>
  <text x="1023" y="268" fill="white" font-family="Inter, Arial" font-size="18" font-weight="700">New task</text>
  <g filter="url(#shadow)">
    <rect x="70" y="382" width="260" height="210" rx="24" fill="#172554" opacity="0.9" stroke="#3b82f6"/>
    <rect x="98" y="412" width="70" height="26" rx="13" fill="#f97316"/>
    <text x="115" y="431" fill="white" font-family="monospace" font-size="13">HIGH</text>
    <text x="98" y="478" fill="#f8fafc" font-family="Inter, Arial" font-size="24" font-weight="800">Design layout</text>
    <text x="98" y="515" fill="#cbd5e1" font-family="Inter, Arial" font-size="16">Polish cards, toolbar, stats and responsive UI.</text>
    <rect x="98" y="548" width="84" height="26" rx="13" fill="#ffffff" opacity="0.12"/>
    <text x="112" y="566" fill="#e2e8f0" font-family="monospace" font-size="13">#design</text>
    <rect x="360" y="382" width="260" height="210" rx="24" fill="#312e81" opacity="0.9" stroke="#7c3aed"/>
    <rect x="388" y="412" width="90" height="26" rx="13" fill="#a855f7"/>
    <text x="403" y="431" fill="white" font-family="monospace" font-size="13">MEDIUM</text>
    <text x="388" y="478" fill="#f8fafc" font-family="Inter, Arial" font-size="24" font-weight="800">Docker workflow</text>
    <text x="388" y="515" fill="#cbd5e1" font-family="Inter, Arial" font-size="16">Production container with nginx and compose.</text>
    <rect x="388" y="548" width="84" height="26" rx="13" fill="#ffffff" opacity="0.12"/>
    <text x="402" y="566" fill="#e2e8f0" font-family="monospace" font-size="13">#devops</text>
    <rect x="650" y="382" width="260" height="210" rx="24" fill="#064e3b" opacity="0.9" stroke="#22c55e"/>
    <rect x="678" y="412" width="90" height="26" rx="13" fill="#22c55e"/>
    <text x="694" y="431" fill="#052e16" font-family="monospace" font-size="13">DONE</text>
    <text x="678" y="478" fill="#f8fafc" font-family="Inter, Arial" font-size="24" font-weight="800">README setup</text>
    <text x="678" y="515" fill="#cbd5e1" font-family="Inter, Arial" font-size="16">Document features, scripts and deployment.</text>
    <rect x="678" y="548" width="72" height="26" rx="13" fill="#ffffff" opacity="0.12"/>
    <text x="692" y="566" fill="#e2e8f0" font-family="monospace" font-size="13">#docs</text>
    <rect x="940" y="382" width="270" height="210" rx="24" fill="#0f172a" opacity="0.9" stroke="#334155"/>
    <text x="970" y="438" fill="#94a3b8" font-family="Inter, Arial" font-size="18">Done rate</text>
    <text x="970" y="505" fill="#f8fafc" font-family="Inter, Arial" font-size="58" font-weight="800">33%</text>
    <rect x="970" y="540" width="178" height="12" rx="6" fill="#1e293b"/>
    <rect x="970" y="540" width="60" height="12" rx="6" fill="url(#accent)"/>
  </g>
</svg>
